<?xml version="1.0" encoding="iso-8859-1"?>
<!-- Uploaded to: SVG Repo, www.svgrepo.com, Generator: SVG Repo Mixer Tools -->
<!DOCTYPE svg PUBLIC "-//W3C//DTD SVG 1.1//EN" "http://www.w3.org/Graphics/SVG/1.1/DTD/svg11.dtd">
<svg fill="#000000" version="1.1" id="Capa_1" xmlns="http://www.w3.org/2000/svg" xmlns:xlink="http://www.w3.org/1999/xlink" 
	 width="800px" height="800px" viewBox="0 0 47 47.001" xml:space="preserve">
<g>
	<g>
		<path d="M13.5,8.12L5.381,0.001C4.075,0.418,2.916,1.055,1.985,1.985c-0.93,0.93-1.567,2.089-1.984,3.396l9.526,9.525
			C9.935,12.163,11.399,9.758,13.5,8.12z"/>
		<path d="M37.473,32.095c-0.406,2.743-1.871,5.148-3.972,6.787l8.119,8.119c1.306-0.417,2.465-1.054,3.396-1.985
			c0.93-0.93,1.567-2.089,1.983-3.395L37.473,32.095z"/>
		<path d="M37.473,14.906L47,5.38c-0.417-1.306-1.053-2.465-1.984-3.395C44.085,1.054,42.927,0.417,41.621,0L33.5,8.119
			C35.6,9.758,37.067,12.163,37.473,14.906z"/>
		<path d="M9.527,32.095L0,41.62c0.417,1.307,1.054,2.466,1.985,3.396C2.916,45.947,4.074,46.583,5.38,47l8.119-8.119
			C11.399,37.242,9.935,34.837,9.527,32.095z"/>
		<path d="M34.78,17.861c0-4.652-3.809-8.461-8.459-8.461h-5.64c-4.651,0-8.46,3.809-8.46,8.461v11.28
			c0,4.651,3.809,8.461,8.46,8.461h5.64c4.65,0,8.459-3.81,8.459-8.461V17.861z M27.418,32.136h-7.837l1.749-8.425
			c-1.497-0.783-2.53-2.337-2.53-4.146c0-2.597,2.103-4.699,4.701-4.699c2.597,0,4.699,2.103,4.699,4.699
			c0,1.81-1.033,3.364-2.531,4.146L27.418,32.136z"/>
	</g>
</g>
</svg>